<svg data-v-fde0c5aa="" xmlns="http://www.w3.org/2000/svg" viewBox="0 0 300 300" class="iconAbove">
    <!---->
    <defs data-v-fde0c5aa="">
        <!---->
    </defs>
    <rect data-v-fde0c5aa="" fill="transparent" x="0" y="0" width="300px" height="300px" class="logo-background-square">
    </rect>
    <defs data-v-fde0c5aa="">
        <!---->
    </defs>
    <g data-v-fde0c5aa="" id="2d6b49d5-bd2d-4749-8a48-c8c85f16c401" fill="#000000"
        transform="matrix(6.370229820458716,0,0,6.370229820458716,18.00883509012701,176.80479435297323)">
        <path
            d="M3.68 12.08L4.19 12.08Q4.84 12.08 5.39 11.83Q5.94 11.58 6.32 11.10Q6.71 10.61 6.92 9.90Q7.13 9.18 7.13 8.26L7.13 8.26Q7.13 7.34 6.92 6.62Q6.71 5.91 6.31 5.42Q5.92 4.94 5.38 4.70Q4.84 4.45 4.17 4.45L4.17 4.45L3.68 4.45Q3.65 5.33 3.65 6.22Q3.65 7.11 3.65 8.02L3.65 8.02L3.65 8.37Q3.65 9.35 3.65 10.27Q3.65 11.19 3.68 12.08L3.68 12.08ZM0.45 3.68L4.68 3.68Q5.70 3.68 6.54 3.98Q7.39 4.27 8.00 4.85Q8.61 5.43 8.94 6.27Q9.27 7.11 9.27 8.20L9.27 8.20Q9.27 9.34 8.90 10.21Q8.54 11.07 7.89 11.66Q7.24 12.25 6.34 12.55Q5.45 12.85 4.40 12.85L4.40 12.85L0.45 12.85L0.45 12.15L1.58 12.03Q1.61 11.16 1.61 10.26Q1.61 9.35 1.61 8.37L1.61 8.37L1.61 8.02Q1.61 7.14 1.61 6.27Q1.61 5.39 1.58 4.51L1.58 4.51L0.45 4.38L0.45 3.68ZM13.65 6.58L13.65 6.58Q12.18 6.58 12.18 9.48L12.18 9.48Q12.18 10.96 12.55 11.66Q12.92 12.36 13.65 12.36L13.65 12.36Q14.39 12.36 14.76 11.66Q15.12 10.96 15.12 9.48L15.12 9.48Q15.12 6.58 13.65 6.58ZM13.65 5.88L13.65 5.88Q14.35 5.88 14.99 6.13Q15.62 6.38 16.11 6.85Q16.60 7.32 16.90 7.99Q17.19 8.65 17.19 9.49L17.19 9.49Q17.19 10.33 16.93 10.99Q16.66 11.65 16.18 12.11Q15.71 12.57 15.06 12.82Q14.41 13.06 13.65 13.06L13.65 13.06Q12.89 13.06 12.24 12.82Q11.59 12.57 11.12 12.11Q10.65 11.65 10.38 10.99Q10.11 10.33 10.11 9.49L10.11 9.49Q10.11 8.65 10.40 7.99Q10.68 7.32 11.17 6.85Q11.66 6.38 12.31 6.13Q12.95 5.88 13.65 5.88ZM23.93 10.14L25.03 10.14L24.89 12.85L17.64 12.85L17.64 12.15L18.77 12.03Q18.80 11.16 18.80 10.28Q18.80 9.41 18.80 8.51L18.80 8.51L18.80 8.02Q18.80 7.14 18.80 6.27Q18.80 5.39 18.77 4.51L18.77 4.51L17.64 4.38L17.64 3.68L22.08 3.68L22.08 4.38L20.87 4.51Q20.85 5.39 20.85 6.26Q20.85 7.13 20.85 8.02L20.85 8.02L20.85 8.51Q20.85 9.41 20.85 10.30Q20.85 11.19 20.87 12.08L20.87 12.08L23.53 12.08L23.93 10.14ZM27.50 4.72L27.50 4.72Q27.02 4.72 26.68 4.40Q26.33 4.09 26.33 3.60L26.33 3.60Q26.33 3.11 26.68 2.80Q27.02 2.49 27.50 2.49L27.50 2.49Q27.99 2.49 28.32 2.80Q28.66 3.11 28.66 3.60L28.66 3.60Q28.66 4.09 28.32 4.40Q27.99 4.72 27.50 4.72ZM28.49 12.07L29.29 12.24L29.29 12.85L25.70 12.85L25.70 12.24L26.56 12.07Q26.57 11.54 26.57 10.95Q26.57 10.36 26.57 9.91L26.57 9.91L26.57 9.21Q26.57 8.64 26.56 8.25Q26.54 7.87 26.53 7.45L26.53 7.45L25.59 7.32L25.59 6.79L28.31 5.88L28.52 6.02L28.48 8.02L28.48 9.91Q28.48 10.36 28.48 10.96Q28.48 11.55 28.49 12.07L28.49 12.07ZM33.19 8.54L33.67 8.71Q34.22 8.90 34.58 9.13Q34.94 9.37 35.15 9.63Q35.36 9.90 35.45 10.20Q35.53 10.50 35.53 10.84L35.53 10.84Q35.53 11.34 35.32 11.75Q35.11 12.15 34.72 12.45Q34.33 12.74 33.78 12.90Q33.24 13.06 32.55 13.06L32.55 13.06Q31.82 13.06 31.27 12.89Q30.72 12.73 30.13 12.39L30.13 12.39L30.13 10.78L31.21 10.78L31.39 12.00Q31.71 12.18 31.98 12.26Q32.26 12.33 32.55 12.33L32.55 12.33Q33.22 12.33 33.54 12.11Q33.85 11.89 33.85 11.42L33.85 11.42Q33.85 11.23 33.79 11.08Q33.73 10.93 33.57 10.81Q33.42 10.68 33.16 10.56Q32.90 10.43 32.49 10.28L32.49 10.28L31.85 10.02Q31.01 9.70 30.58 9.19Q30.16 8.68 30.16 7.94L30.16 7.94Q30.16 7.01 30.86 6.45Q31.57 5.88 33.01 5.88L33.01 5.88Q33.64 5.88 34.13 6.02Q34.62 6.16 35.14 6.41L35.14 6.41L35.06 7.95L33.99 7.95L33.78 6.79Q33.60 6.72 33.40 6.66Q33.21 6.61 32.93 6.61L32.93 6.61Q32.42 6.61 32.12 6.84Q31.81 7.07 31.81 7.48L31.81 7.48Q31.81 7.63 31.86 7.76Q31.92 7.90 32.07 8.02Q32.23 8.15 32.50 8.27Q32.77 8.40 33.19 8.54L33.19 8.54ZM40.59 11.52L40.99 12.00Q40.73 12.40 40.22 12.70Q39.72 12.99 38.96 12.99L38.96 12.99Q38.11 12.99 37.61 12.57Q37.11 12.15 37.11 11.27L37.11 11.27Q37.11 10.84 37.12 10.52Q37.13 10.21 37.13 9.80L37.13 9.80L37.13 7.03L36.19 7.03L36.19 6.26L37.30 6.12L37.69 4.17L39.03 4.17L39.03 6.13L40.63 6.13L40.63 7.03L39.03 7.03L39.03 10.88Q39.03 11.40 39.23 11.63Q39.44 11.86 39.76 11.86L39.76 11.86Q39.90 11.86 40.12 11.79Q40.33 11.73 40.59 11.52L40.59 11.52Z">
        </path>
    </g>
    <defs data-v-fde0c5aa="">
        <linearGradient data-v-fde0c5aa="" gradientTransform="rotate(25)" id="94abd731-ba87-437e-8cc3-5b3e1ceb3736"
            x1="0%" y1="0%" x2="100%" y2="0%">
            <stop data-v-fde0c5aa="" offset="0%" stop-color="#181B80" stop-opacity="1"></stop>
            <stop data-v-fde0c5aa="" offset="100%" stop-color="#181ED9" stop-opacity="1"></stop>
        </linearGradient>
    </defs>
    <g data-v-fde0c5aa="" id="34c1f1f5-2d0d-44df-b643-4f5deb83e2fb" stroke="none"
        fill="url(#94abd731-ba87-437e-8cc3-5b3e1ceb3736)"
        transform="matrix(4.208333333333334,0,0,4.208333333333334,82.66666666666666,40.06733647982278)">
        <path d="M0 31.984h32v-32H0v32zm2-30h28v28H2v-28z"></path>
        <path
            d="M6.439 16.831h8.959l-4.48-7.741zM16.602 13.331h8.959L21.082 5.59zM6.439 26.41h8.959l-4.48-7.741zM16.602 22.91h8.959l-4.479-7.741z">
        </path>
    </g>
    <!---->
</svg>